Coordinates
version=1
nRows=12
nColumns=34
inDegrees=yes

Units are S.I. units (second, meters, Newtons, ...)
If the header above contains a line with 'inDegrees', this indicates whether rotational values are in degrees (yes) or radians (no).

endheader
time	pelvis_tilt	pelvis_list	pelvis_rotation	pelvis_tx	pelvis_ty	pelvis_tz	hip_flexion_r	hip_adduction_r	hip_rotation_r	knee_angle_r	ankle_angle_r	subtalar_angle_r	mtp_angle_r	hip_flexion_l	hip_adduction_l	hip_rotation_l	knee_angle_l	ankle_angle_l	subtalar_angle_l	mtp_angle_l	lumbar_extension	lumbar_bending	lumbar_rotation	arm_flex_r	arm_add_r	arm_rot_r	elbow_flex_r	pro_sup_r	arm_flex_l	arm_add_l	arm_rot_l	elbow_flex_l	pro_sup_l
      2.93333330	     -1.18186774	      5.64387982	     42.28018031	      0.34572594	      1.00870062	      0.02116154	    -11.16146096	     -8.29342211	    -39.99999995	     11.32275041	      4.66783988	    -21.40446956	      0.00000000	      7.36460022	     13.33606553	     13.33768934	      6.02847891	      7.23064506	      7.24175243	      0.00000000	     -9.73913262	      3.41682957	     30.38047176	     23.90320766	    -13.38247869	     36.94159160	     21.80855766	    119.74817918	     14.43576016	    -18.24116843	      4.90533884	     22.25249054	    119.74817918
      2.95000000	     -1.08885641	      5.75731676	     42.41018518	      0.34574472	      1.00863791	      0.02392453	    -11.22719181	     -8.16438310	    -39.99999995	     11.38550814	      4.92957831	    -21.54081270	      0.00000000	      7.38686142	     13.23314523	     13.33561478	      6.15816474	      7.13011935	      7.29611689	      0.00000000	     -9.91518509	      3.41085320	     30.22887890	     24.57454352	    -13.17821567	     37.06332938	     21.92887273	    119.74817918	     14.17870812	    -17.73827731	      5.04292679	     21.78546117	    119.74817918
      2.96666670	     -0.85863832	      5.88137990	     42.50229440	      0.34570602	      1.00885245	      0.02692370	    -11.51028639	     -7.83399353	    -39.99999995	     11.07480516	      4.63270401	    -21.99496951	      0.00000000	      7.32357094	     13.02422796	     13.16093453	      6.33282882	      7.28778975	      7.71742504	      0.00000000	    -10.12103429	      3.48803020	     30.03581853	     25.60861053	    -13.05761297	     39.44410462	     21.44143318	    119.74817918	     14.27322060	    -17.22042288	      6.34126497	     20.45402150	    119.74817918
      2.98333330	     -0.69004571	      5.95090077	     42.35479872	      0.34592010	      1.00887180	      0.03073031	    -11.54611645	     -7.61310672	    -39.99999995	     10.99681995	      4.85260186	    -22.08511586	      0.00000000	      7.39863850	     12.75843567	     12.99951597	      6.49526807	      7.31968919	      7.53732725	      0.00000000	    -10.29672143	      3.43297588	     29.84485477	     26.33986796	    -12.67706122	     39.50940039	     21.53837047	    119.74817918	     14.03228644	    -16.69691025	      6.49636792	     19.85978504	    119.74817918
      3.00000000	     -0.46766723	      5.99591081	     42.07860910	      0.34618257	      1.00904195	      0.03514248	    -11.59217708	     -7.29645137	    -39.99999995	     10.80747931	      4.93779160	    -22.01938855	      0.00000000	      7.47922117	     12.42285616	     12.86676193	      6.70472329	      7.40524826	      7.35807525	      0.00000000	    -10.51756134	      3.39496010	     29.73370922	     27.07455775	    -12.25533098	     39.71100227	     21.45686624	    119.74817918	     13.94547319	    -16.11123608	      6.73816096	     19.02715009	    119.74817918
      3.01666670	     -0.13671155	      6.05819508	     41.74223563	      0.34677101	      1.00949168	      0.03989682	    -11.84412622	     -6.80483271	    -39.99999995	     10.33865155	      5.05717437	    -21.58274126	      0.00000000	      7.52592461	     11.97986741	     12.80824354	      7.03673397	      7.61914717	      7.24683514	      0.00000000	    -10.80740697	      3.37079918	     29.78530947	     27.80073759	    -11.85608997	     40.51097650	     21.00068048	    119.74817918	     14.24048771	    -15.42998921	      7.47410671	     17.78262118	    119.74817918
      3.03333330	     -0.06013050	      6.09863112	     41.33826022	      0.34755202	      1.00967223	      0.04518935	    -11.73343702	     -6.58186854	    -39.99999995	     10.18388083	      5.14758796	    -21.61049847	      0.00000000	      7.63632737	     11.64496168	     12.77307942	      7.01615452	      7.61667213	      7.18766390	      0.00000000	    -10.88219838	      3.08629448	     29.66872790	     28.28681559	    -11.41405004	     40.58625345	     21.30165088	    119.74817918	     14.09338916	    -15.05193999	      7.62717190	     17.66164630	    119.74817918
      3.05000000	      0.34948642	      6.00998567	     40.80696217	      0.34863138	      1.01031373	      0.05090868	    -11.90105467	     -5.90068850	    -39.99999995	      9.71325662	      5.43284338	    -20.78211241	      0.00000000	      7.75091806	     10.97180708	     12.43279037	      7.36231191	      7.63737331	      6.72623192	      0.00000000	    -11.17310908	      3.16238201	     29.56470433	     28.89813533	    -10.97093539	     41.20951853	     21.31925209	    119.74817918	     14.01255593	    -14.68275125	      8.17261854	     17.29054016	    119.74817918
      3.06666670	      0.39517574	      5.99076045	     40.35965235	      0.35005966	      1.01067968	      0.05709792	    -11.71768517	     -5.56945204	    -39.99999995	      9.52907418	      5.52295730	    -20.65852029	      0.00000000	      7.87839877	     10.53717630	     12.43500509	      7.28589718	      7.64043234	      6.66626260	      0.00000000	    -11.21472540	      2.72458061	     29.41243491	     29.30826618	    -10.48941868	     41.31109646	     21.61833358	    119.74817918	     13.99508835	    -14.56965484	      8.24601551	     17.20518179	    119.74817918
      3.08333330	      0.73259661	      5.80901753	     39.58594194	      0.35192132	      1.01132983	      0.06337921	    -11.79847304	     -4.87815554	    -39.99999995	      9.04949940	      6.64370561	    -18.69702203	      0.00000000	      7.86795005	      9.75263566	     12.28469338	      7.23930274	      7.77419528	      6.05653010	      0.00000000	    -11.35420538	      2.69975854	     29.32357189	     29.87539756	    -10.04088190	     42.53344067	     21.54513613	    119.74817918	     13.73717717	    -14.45916299	      8.51031064	     16.92357940	    119.74817918
      3.10000000	      0.78213097	      5.75140422	     39.04655622	      0.35312920	      1.01177165	      0.06996195	    -11.59334923	     -4.50657891	    -39.99999995	      8.82099738	      6.69177813	    -18.51569421	      0.00000000	      8.06008103	      9.26749863	     12.15957777	      7.18736591	      7.58412321	      5.92816647	      0.00000000	    -11.43106789	      2.26248659	     28.96731689	     30.28636493	     -9.66790320	     42.58061735	     21.86567073	    119.74817918	     13.57484216	    -14.55411041	      8.49549000	     16.73105096	    119.74817918
      3.11666670	      1.01869826	      5.40587299	     38.34179819	      0.35415909	      1.01235294	      0.07648498	    -11.50102651	     -3.70736775	    -39.99999995	      8.22484748	      7.39819391	    -16.72423665	      0.00000000	      8.39953368	      8.45229666	     11.87478439	      7.36228948	      7.35495317	      5.21722524	      0.00000000	    -11.44855487	      2.29410869	     28.57934004	     30.65683552	     -9.33295986	     43.05902040	     22.10276315	    119.74817918	     13.17918112	    -14.56052184	      8.17388938	     16.54611501	    119.72347862
